<svg width="128" height="123" viewBox="0 0 128 123" xmlns="http://www.w3.org/2000/svg" xmlns:xlink="http://www.w3.org/1999/xlink"><defs><path d="M84.272 2.601c5.25 2.273 11.226 8.596 16.33 23.57C105.201 39.675 108 56.588 108 67.49c0 16.36-5.358 26.62-10.97 30.78-4.848 4.16-12.23 4.866-18.37 1.942-6.14-2.925-11.737-10.26-14.543-18.857-5.343-16.367-6.124-31.613-5.103-45.478.907-12.315 1.986-22.037 8.42-30.226C72.014-.18 79.023.328 84.271 2.601z" id="b"/><filter x="-30.4%" y="-14.9%" width="160.8%" height="129.7%" filterUnits="objectBoundingBox" id="a"><feOffset in="SourceAlpha" result="shadowOffsetOuter1"/><feGaussianBlur stdDeviation="5" in="shadowOffsetOuter1" result="shadowBlurOuter1"/><feColorMatrix values="0 0 0 0 0 0 0 0 0 0 0 0 0 0 0 0 0 0 0.25 0" in="shadowBlurOuter1"/></filter><path d="M105.409 45.441s-4.606 3.59-22.28 6.303c-17.673 2.714-24.5 1.306-24.5 1.306.196 10.299 1.622 17.902 5.4 29.403 2.812 8.56 8.42 15.863 14.572 18.776 6.152 2.912 13.549 2.21 18.406-1.932C102.631 95.155 108 84.938 108 68.647c0-7.215-.407-13.458-2.591-23.206z" id="d"/><filter x="-30.4%" y="-26.1%" width="160.8%" height="152.1%" filterUnits="objectBoundingBox" id="c"><feOffset in="SourceAlpha" result="shadowOffsetOuter1"/><feGaussianBlur stdDeviation="5" in="shadowOffsetOuter1" result="shadowBlurOuter1"/><feColorMatrix values="0 0 0 0 0 0 0 0 0 0 0 0 0 0 0 0 0 0 0.25 0" in="shadowBlurOuter1"/></filter><path d="M23.728 1.591c-5.25 2.273-11.226 8.597-16.33 23.571C2.799 38.664 0 55.577 0 66.48c0 16.36 5.358 26.621 10.97 30.78 4.848 4.16 12.23 4.866 18.37 1.942 6.14-2.925 11.737-10.26 14.543-18.857 5.343-16.366 6.124-31.612 5.103-45.477C48.079 22.552 47 12.83 40.566 4.642c-4.581-5.832-11.59-5.324-16.838-3.05z" id="f"/><filter x="-30.4%" y="-14.9%" width="160.8%" height="129.7%" filterUnits="objectBoundingBox" id="e"><feOffset in="SourceAlpha" result="shadowOffsetOuter1"/><feGaussianBlur stdDeviation="5" in="shadowOffsetOuter1" result="shadowBlurOuter1"/><feColorMatrix values="0 0 0 0 0 0 0 0 0 0 0 0 0 0 0 0 0 0 0.25 0" in="shadowBlurOuter1"/></filter><path d="M2.591 44.431s4.606 3.59 22.28 6.304c17.673 2.714 24.5 1.306 24.5 1.306-.196 10.298-1.622 17.902-5.4 29.403-2.812 8.56-8.42 15.863-14.572 18.775-6.152 2.912-13.549 2.21-18.406-1.932C5.369 94.145 0 83.929 0 67.637c0-7.215.407-13.458 2.591-23.206z" id="h"/><filter x="-30.4%" y="-26.1%" width="160.8%" height="152.1%" filterUnits="objectBoundingBox" id="g"><feOffset in="SourceAlpha" result="shadowOffsetOuter1"/><feGaussianBlur stdDeviation="5" in="shadowOffsetOuter1" result="shadowBlurOuter1"/><feColorMatrix values="0 0 0 0 0 0 0 0 0 0 0 0 0 0 0 0 0 0 0.25 0" in="shadowBlurOuter1"/></filter></defs><g fill="none" fill-rule="evenodd"><g transform="translate(10 10)"><use fill="#000" filter="url(#a)" xlink:href="#b"/><use fill="#FFF" xlink:href="#b"/></g><g transform="translate(10 10)"><use fill="#000" filter="url(#c)" xlink:href="#d"/><use fill="#FFF" xlink:href="#d"/></g><g transform="translate(10 10)"><use fill="#000" filter="url(#e)" xlink:href="#f"/><use fill="#FFF" xlink:href="#f"/></g><g transform="translate(10 10)"><use fill="#000" filter="url(#g)" xlink:href="#h"/><use fill="#FFF" xlink:href="#h"/></g></g></svg>