<svg width="163" height="109" viewBox="0 0 163 109" xmlns="http://www.w3.org/2000/svg" xmlns:xlink="http://www.w3.org/1999/xlink"><defs><filter x="-18.1%" y="-21.4%" width="136.2%" height="157.1%" filterUnits="objectBoundingBox" id="a"><feOffset in="SourceAlpha" result="shadowOffsetOuter1"/><feGaussianBlur stdDeviation="5" in="shadowOffsetOuter1" result="shadowBlurOuter1"/><feColorMatrix values="0 0 0 0 0 0 0 0 0 0 0 0 0 0 0 0 0 0 0.25 0" in="shadowBlurOuter1" result="shadowMatrixOuter1"/><feMerge><feMergeNode in="shadowMatrixOuter1"/><feMergeNode in="SourceGraphic"/></feMerge></filter><path id="c" d="M18.62 38.281h99.304v25.866H18.62z"/><filter x="-15.1%" y="-58%" width="130.2%" height="216%" filterUnits="objectBoundingBox" id="b"><feOffset in="SourceAlpha" result="shadowOffsetOuter1"/><feGaussianBlur stdDeviation="5" in="shadowOffsetOuter1" result="shadowBlurOuter1"/><feColorMatrix values="0 0 0 0 0 0 0 0 0 0 0 0 0 0 0 0 0 0 0.25 0" in="shadowBlurOuter1"/></filter><rect id="e" y="58.974" width="137.578" height="10.346" rx="5"/><filter x="-10.9%" y="-145%" width="121.8%" height="390%" filterUnits="objectBoundingBox" id="d"><feOffset in="SourceAlpha" result="shadowOffsetOuter1"/><feGaussianBlur stdDeviation="5" in="shadowOffsetOuter1" result="shadowBlurOuter1"/><feColorMatrix values="0 0 0 0 0 0 0 0 0 0 0 0 0 0 0 0 0 0 0.25 0" in="shadowBlurOuter1"/></filter></defs><g filter="url(#a)" transform="scale(-1 1) rotate(11 -74.407 -708.428)" fill="none" fill-rule="evenodd"><path d="M18.62 41.928l1.341-21.556s.767-9.156 5.75-13.162C35.866.094 47.585.512 54.65 5.683c7.091 5.151 13.99 3.434 21.273-.381 7.283-3.815 29.706-9.729 35.072 0 8.816 10.301 6.708 38.152 6.708 38.152L18.62 41.928z" fill="#FFF"/><use fill="#000" filter="url(#b)" xlink:href="#c"/><use fill="#FFF" xlink:href="#c"/><use fill="#000" filter="url(#d)" xlink:href="#e"/><use fill="#FFF" xlink:href="#e"/></g></svg>