<svg width="144" height="129" viewBox="0 0 144 129" xmlns="http://www.w3.org/2000/svg" xmlns:xlink="http://www.w3.org/1999/xlink"><defs><filter x="-22.8%" y="-12.8%" width="145.6%" height="129.4%" filterUnits="objectBoundingBox" id="a"><feOffset dy="2" in="SourceAlpha" result="shadowOffsetOuter1"/><feGaussianBlur stdDeviation="5" in="shadowOffsetOuter1" result="shadowBlurOuter1"/><feColorMatrix values="0 0 0 0 0 0 0 0 0 0 0 0 0 0 0 0 0 0 0.25 0" in="shadowBlurOuter1" result="shadowMatrixOuter1"/><feMerge><feMergeNode in="shadowMatrixOuter1"/><feMergeNode in="SourceGraphic"/></feMerge></filter><path d="M79.415 13.032c-10.427-1.948-26.317-1.497-27.53-.767C50.365 23.91 40.441 30.653 30.79 29.31c-.293-2.251-3.666-7.725-3.666-7.725s-8.21 4.848-11.853 12.107c-1.697 3.653-2.182 5.6-4.85 8.035-2.667 2.435-7.274 2.679-8.729 5.844C.236 50.736-.377 59.57.236 64.615c.564 4.633 1.94 8.522 3.638 9.01 1.697.486 5.092 1.217 6.79 3.895 1.697 2.678 6.442 9.097 12.123 12.174 15.175 10.578 25.79 5.336 38.798 5.114 13.007-.222 26.913 3.776 35.402-2.435 2.425-3.41 9.972-9.32 13.821-19.236 2.608-6.718 4.11-18.598 2.574-27.275-1.371-7.113-3.388-16.01-9.606-22.153-7.232-6.406-17.79-9.401-24.361-10.677z" id="c"/><filter x="-13.2%" y="-17.7%" width="126.3%" height="135.4%" filterUnits="objectBoundingBox" id="b"><feOffset in="SourceAlpha" result="shadowOffsetOuter1"/><feGaussianBlur stdDeviation="5" in="shadowOffsetOuter1" result="shadowBlurOuter1"/><feColorMatrix values="0 0 0 0 0 0 0 0 0 0 0 0 0 0 0 0 0 0 0.25 0" in="shadowBlurOuter1"/></filter></defs><g filter="url(#a)" transform="translate(15 8)" fill="none" fill-rule="evenodd"><path d="M107.966 31.748c.226-2.316 2.067-4.36 2.672-7.615.8-5.394-1.11-8.493-1.11-8.493-1.342-2.07-3.597-2.414-4.275-1.127-.678 1.286 0 3.601.452 5.659s0 4.116-2.26 3.344l4.52 8.232zM52.364 12.11c-.776-1.996-7.389-7.48-13.194-9.636C27.656-1.803 20.313.45 18.872 1.954c-1.678 1.751-.76 5.468.254 7.552 1.015 2.083 7.687 11.86 11.164 20.833 3.477 8.973 25.778-8.71 22.074-18.23z" fill="#FFF"/><path d="M31.486 97.1c-.241 2.185.123 8.592.847 9.563.421.565 5.484 1.579 10.603 1.81 3.685.166 7.759-.291 8.466-.596 1.69-.728 2.414-5.099 2.896-6.313.483-1.214 1.464-6.834 6.517-7.284 3.847-.342 6.035.243 7.724 2.186 1.69 1.942 2.989 6.007 3.38 9.226.24.971-.391 2.599 5.643 3.084 6.035.486 14.241.165 15.207-.806.965-.971 1.356-5.92 1.356-5.92-.24-1.751-.483-6.798 1.93-10.198-35.72-108.725-64.733-37.044-74.824-5.461-1.304 4.082 8.425 5.098 10.255 10.709z" fill="#FFF"/><use fill="#000" filter="url(#b)" xlink:href="#c"/><use fill="#FFF" xlink:href="#c"/></g></svg>