<svg width="35" height="32" viewBox="0 0 35 32" xmlns="http://www.w3.org/2000/svg"><path d="M15.557 1.004c-.893-.02-1.93.033-3.08.228a15.33 15.33 0 0 0-3.733 1.144c-.214.096-.407.181-.349.16l-.264.097-.024.273s-.07.971.62 2.099v.003c.64 1.032 1.706 1.578 2.77 1.878 1.064.3 2.152.369 2.936.427l.025.003.025-.002c1.878-.06 2.448-.13 4.167-1.197l.006-.003.006-.005a5.827 5.827 0 0 0 1.325-1.263c.355-.455.61-.88.713-1.268l.006-.02.003-.022c.07-.44.006-.838-.184-1.153-.19-.316-.485-.527-.796-.672-.622-.29-1.349-.368-1.955-.487l-.004-.001h-.002a14.243 14.243 0 0 0-2.21-.22v.001zm-.021.87c.839.019 1.537.109 2.065.205.65.127 1.327.226 1.738.417.206.096.334.202.41.327.071.119.108.285.07.557-.049.166-.249.555-.55.941a5.071 5.071 0 0 1-1.112 1.066c-1.652 1.025-1.84.997-3.678 1.055-.787-.058-1.8-.13-2.732-.392-.939-.265-1.763-.708-2.249-1.492-.417-.684-.468-1.114-.477-1.347l.102-.046A14.778 14.778 0 0 1 12.63 2.09a15.319 15.319 0 0 1 2.905-.216zm6.878.706c-.303-.007-.632.025-.878.315l-.065.078-.028.097c-.244.862.083 1.873.708 2.835a6.795 6.795 0 0 0 2.807 2.44h.001l.001.001c1.249.584 2.561.6 3.368.505.24-.028.456-.106.622-.253a.927.927 0 0 0 .286-.523c.061-.343-.034-.618-.045-.686l-.007-.042-.014-.042c-.66-1.835-2.57-3.052-3.686-3.685l-.003-.002-.001-.001a10.23 10.23 0 0 0-2.088-.87 3.997 3.997 0 0 0-.977-.168zm-.08.929c.03-.007-.006.001.063.002.18.004.45.051.752.135a9.55 9.55 0 0 1 1.893.79c1.045.593 2.744 1.789 3.254 3.164.022.14.042.265.039.297 0 0-.013.017-.112.028-.674.08-1.856.054-2.883-.427h-.001l-.002-.001a5.928 5.928 0 0 1-2.424-2.106c-.478-.736-.63-1.44-.58-1.882zm6.273 6.195c-.464.056-.946.236-1.424.556l-.032.023-.028.026c-.526.496-.783 1.031-.842 1.586-.06.556.042 1.112.138 1.795l.004.02.005.02c.434 1.762 1.43 2.961 3.031 3.98l.009.006.008.005c.757.436 1.73.787 2.678.592l.028-.005.028-.01c1.196-.394 1.759-1.166 1.9-1.869a2.473 2.473 0 0 0-.195-1.551c-.351-1.331-1.082-2.358-1.739-3.127l-.006-.006-.008-.008c-.751-.805-1.423-1.49-2.238-1.845a2.508 2.508 0 0 0-1.317-.188zm.105.835c.281-.036.535.022.812.142.552.24 1.187.837 1.922 1.623.623.73 1.27 1.644 1.57 2.816l.01.043.022.04c.064.127.226.619.136 1.066-.088.44-.352.879-1.26 1.19-.546.101-1.326-.123-1.94-.475-1.465-.934-2.245-1.874-2.633-3.434-.095-.677-.174-1.186-.134-1.568.04-.38.177-.661.563-1.034.363-.236.664-.373.932-.409zm-4.05 6.305c-1.083.207-1.69 1.07-1.962 2.013-.273.943-.304 2.022-.355 2.977-.163 2.263.4 4.14.638 4.754.224.579.821 1.982 1.682 2.794.462.437 1.22.797 2.098 1.1.878.301 1.857.52 2.72.518l.306-.001.124-.276s.617-1.372.9-2.838c.176-.92.234-2.01.147-3.377v-.005c-.1-1.338-.515-2.79-1.09-3.974-.552-1.137-.992-1.929-1.835-2.57-1.2-.913-2.431-1.327-3.373-1.115zm.2.904c.426-.097 1.556.151 2.6.946.676.515 1.02 1.122 1.562 2.238.52 1.07.91 2.443 1 3.638 0 0-.001 0 0 0 .082 1.309.024 2.32-.134 3.142-.222 1.154-.612 2.021-.73 2.297a8.209 8.209 0 0 1-2.088-.404c-.802-.276-1.512-.662-1.759-.895-.596-.563-1.26-1.958-1.453-2.456-.18-.463-.727-2.284-.578-4.354v-.01c.052-.969.097-2.003.322-2.779.225-.775.538-1.229 1.24-1.36l.01-.002.009-.002zm-6.255-1.746l-.012.001c-1.952.16-3.829.912-5.132 1.74-2.648 1.68-4.253 4.342-4.736 6.27-.94 2.83-.54 6.276-.524 6.402v.027h.001l.035.377.33.069s1.401.284 3.476-.051c1.324-.214 3.817-.905 5.823-2.854 1.975-1.918 2.58-3.488 3.002-4.589l.001-.003.003-.005c.43-1.195.851-3.316.55-5.187-.185-1.159-1.214-2.249-2.806-2.197h-.01zm.046.912c1.178-.035 1.742.665 1.865 1.429.26 1.622-.137 3.696-.51 4.736-.422 1.103-.92 2.443-2.782 4.252-1.81 1.758-4.138 2.414-5.328 2.606-1.535.248-2.415.15-2.794.094-.048-.525-.29-3.39.5-5.75l.005-.017.005-.018c.41-1.648 1.925-4.2 4.343-5.736 1.172-.743 2.941-1.449 4.696-1.596zM12.042 8.92c-2.094-.148-4.27.35-5.961 1.337l-.003.002-.003.001c-2.811 1.703-4.263 3.827-4.993 5.906L1 16.402l.144.2c1.677 2.325 4.225 2.827 6.556 2.435 2.326-.39 4.484-1.614 5.696-2.856a10.73 10.73 0 0 0 2.105-2.648c.5-.886.628-1.804.367-2.584-.26-.78-.905-1.378-1.774-1.655l-.003-.002-.004-.001a9.359 9.359 0 0 0-2.045-.37zm-.058.923a8.36 8.36 0 0 1 1.857.329c.656.21 1.04.598 1.2 1.079.161.482.105 1.104-.296 1.816a9.868 9.868 0 0 1-1.932 2.432l-.01.01-.01.01c-1.037 1.065-3.106 2.254-5.232 2.611-2.049.345-4.089-.063-5.543-1.904.693-1.818 1.962-3.636 4.494-5.17 0 0 .002 0 .002-.002 1.517-.883 3.55-1.34 5.47-1.211z" stroke="#000" stroke-width=".4"/></svg>