<svg width="119" height="43" viewBox="0 0 119 43" fill="none" xmlns="http://www.w3.org/2000/svg"><path fill-rule="evenodd" clip-rule="evenodd" d="M29.108 37.67c3.706 0 7.727 1.23 12.178 5.05.446.382 1.04-.094.65-.569-4.373-5.347-8.419-6.366-12.453-7.227-4.935-1.053-7.474-3.741-9.243-6.694-.352-.587-.51-.484-.542.271-.038.924.027 2.146.241 3.348-.2.009-.4.006-.6.006-7.061 0-12.784-5.542-12.784-12.378 0-6.837 5.723-12.379 12.783-12.379s12.784 5.542 12.784 12.379c0 .486-.025.967-.08 1.439-.935-.163-2.772-.181-4.06-.074-.486.041-.418.26-.051.324 4.226.74 7.13 3.275 7.793 7.877.015.106.158.137.215.046a18.196 18.196 0 0 0 2.737-9.612C38.676 9.135 30.02.75 19.338.75 8.658.751 0 9.135 0 19.477s8.658 18.726 19.338 18.726c2.834 0 5.645-.533 9.77-.533zm1.44-6.8c.86.705 1.122 1.543.667 2.134-.254.323-.664.502-1.155.502a2.09 2.09 0 0 1-1.316-.462c-.783-.662-1.012-1.735-.502-2.345.2-.238.524-.37.913-.37.472 0 .966.193 1.392.542zm3.97-1.788c.126.821-.142 1.16-.411 1.16-.294 0-.662-.332-1.096-.988-.429-.648-.586-1.392-.373-1.767.14-.249.434-.357.804-.221.718.262 1 1.326 1.075 1.816zm26.806-4.288l-2.23-2.597c-.233-.272-.033-.685.332-.685h4.665c.222-.64.347-1.324.347-2.034 0-3.253-2.5-6.058-5.931-6.058-3.432 0-5.932 2.805-5.932 6.058 0 3.252 2.5 6.017 5.931 6.017 1.04 0 1.993-.257 2.818-.701zm10.087 4.388c.242.26.044.677-.321.677H66a.707.707 0 0 1-.536-.243L64.6 28.61a11.432 11.432 0 0 1-6.095 1.747c-6.196 0-11.236-4.88-11.236-10.88 0-6 5.04-10.88 11.236-10.88 6.196 0 11.236 4.88 11.236 10.88 0 2.162-.657 4.178-1.785 5.873l3.454 3.831zM118.43 9.098h-4.154a.544.544 0 0 0-.552.536v19.688c0 .296.247.536.552.536h4.154c.305 0 .553-.24.553-.536V9.634a.545.545 0 0 0-.553-.536zm-6.99 0h-4.647a.55.55 0 0 0-.529.376l-3.678 11.636-4.042-11.65a.551.551 0 0 0-.524-.363h-3.243a.552.552 0 0 0-.524.363L90.21 21.11 86.533 9.474a.55.55 0 0 0-.528-.376h-4.648a.56.56 0 0 0-.448.22.513.513 0 0 0-.076.479l6.826 19.7a.551.551 0 0 0 .524.362h3.69a.552.552 0 0 0 .523-.362l4.003-11.51 4.002 11.51a.55.55 0 0 0 .524.362h3.689a.55.55 0 0 0 .524-.362l6.826-19.7a.514.514 0 0 0-.076-.478.558.558 0 0 0-.448-.22zm-32.366.536v19.688a.544.544 0 0 1-.553.536h-4.153a.544.544 0 0 1-.553-.536V9.634c0-.296.247-.536.553-.536h4.153c.305 0 .553.24.553.536z" fill="#FF8C00"/></svg>