<svg width="60" height="36" viewBox="0 0 60 36" fill="none" xmlns="http://www.w3.org/2000/svg"><path fill-rule="evenodd" clip-rule="evenodd" d="M55.062 26.299v.614h-.117v-.464l-.179.4h-.121l-.18-.4v.464h-.116v-.614h.166l.19.421.191-.421h.166zm-1.05.105v.509h-.115v-.51h-.212V26.3h.54v.104h-.212z" fill="#F79410"/><path d="M37 31.842H23V3.857h14v27.985z" fill="#FF5F00"/><path d="M23.037 17.859c0-5.678 2.705-10.736 6.919-13.995A18.241 18.241 0 0 0 18.76.058C8.755.058.645 8.028.645 17.858c0 9.832 8.11 17.802 18.115 17.802 4.226 0 8.115-1.423 11.196-3.806-4.214-3.26-6.92-8.317-6.92-13.995" fill="#EB001B"/><path d="M59.502 17.846c0 9.831-8.177 17.801-18.263 17.801a18.5 18.5 0 0 1-11.289-3.806c4.25-3.26 6.977-8.317 6.977-13.995 0-5.678-2.728-10.736-6.977-13.995A18.493 18.493 0 0 1 41.24.045c10.086 0 18.263 7.97 18.263 17.801" fill="#F79E1B"/></svg>