<svg width="92" height="30" viewBox="0 0 92 30" fill="none" xmlns="http://www.w3.org/2000/svg"><path d="M39.83 29.706h-7.105l4.444-27.96h7.106l-4.445 27.96zM66.55 2.132C65.085 1.568 62.762.946 59.89.946c-7.333 0-12.497 3.791-12.529 9.21-.06 4 3.697 6.22 6.508 7.553 2.873 1.363 3.85 2.252 3.85 3.466-.03 1.865-2.322 2.725-4.46 2.725-2.965 0-4.553-.443-6.967-1.48l-.978-.446-1.04 6.25c1.743.77 4.951 1.452 8.283 1.482 7.791 0 12.864-3.733 12.924-9.508.03-3.17-1.955-5.598-6.233-7.582-2.597-1.274-4.188-2.133-4.188-3.436.03-1.185 1.345-2.398 4.277-2.398 2.414-.06 4.188.503 5.531 1.066l.672.295 1.01-6.011z" fill="#00579F"/><path fill-rule="evenodd" clip-rule="evenodd" d="M79.674 1.745h5.69l5.936 27.96h-6.812s-.667-3.212-.878-4.194h-9.446l-1.544 4.195H64.9L75.828 4.065c.757-1.815 2.09-2.32 3.846-2.32zm-.454 10.232s-2.331 6.217-2.937 7.823h6.115c-.302-1.398-1.696-8.09-1.696-8.09l-.514-2.41c-.216.62-.529 1.471-.74 2.046-.143.392-.24.655-.228.631z" fill="#00579F"/><path d="M25.88 1.745l-7.102 19.087-.776-3.871C16.689 12.494 12.57 7.64 7.975 5.228l6.505 24.478h7.67l11.4-27.96h-7.67z" fill="#00579F"/><path d="M12.149 1.745H.667L.55 2.28c8.956 2.195 14.888 7.485 17.325 13.845L15.379 3.969c-.411-1.69-1.674-2.168-3.23-2.224z" fill="#FAA61A"/></svg>