<svg width="138" height="40" viewBox="0 0 138 40" fill="none" xmlns="http://www.w3.org/2000/svg"><rect width="136.731" height="40" rx="5" transform="translate(.5)" fill="#000"/><path fill-rule="evenodd" clip-rule="evenodd" d="M5.564 0h126.603c2.796 0 5.064 2.238 5.064 5v30c0 2.762-2.268 5-5.064 5H5.564C2.767 40 .5 37.762.5 35V5c0-2.762 2.267-5 5.064-5zM136.42 5c0-2.32-1.904-4.2-4.253-4.2H5.564C3.214.8 1.31 2.68 1.31 5v30c0 2.32 1.904 4.2 4.254 4.2h126.603c2.349 0 4.253-1.88 4.253-4.2V5z" fill="#A6A6A6"/><path fill-rule="evenodd" clip-rule="evenodd" d="M48.852 23.06v1.8h4.375a3.75 3.75 0 0 1-1.012 2.27 4.506 4.506 0 0 1-3.373 1.32c-2.685 0-4.862-2.15-4.862-4.8s2.177-4.8 4.862-4.8a4.685 4.685 0 0 1 3.312 1.29l1.286-1.27A6.412 6.412 0 0 0 48.852 17a6.716 6.716 0 0 0-6.014 3.227 6.538 6.538 0 0 0 0 6.757 6.715 6.715 0 0 0 6.014 3.226 6.116 6.116 0 0 0 4.669-1.85 5.956 5.956 0 0 0 1.58-4.22A5.82 5.82 0 0 0 55 23.01l-6.148.05zm11.232-1.31c-2.376.005-4.298 1.91-4.294 4.257.004 2.346 1.932 4.245 4.308 4.243 2.376-.002 4.3-1.904 4.3-4.25a4.161 4.161 0 0 0-1.249-3.03 4.268 4.268 0 0 0-3.075-1.22h.01zm5.145 4.263c-.007-2.344 1.91-4.252 4.285-4.263a4.268 4.268 0 0 1 3.075 1.22 4.161 4.161 0 0 1 1.25 3.03c0 2.345-1.924 4.246-4.299 4.25-2.374.003-4.303-1.892-4.31-4.237zm1.744 1.106a2.62 2.62 0 0 0 2.54 1.462 2.51 2.51 0 0 0 1.767-.784A2.442 2.442 0 0 0 71.944 26a2.581 2.581 0 0 0-1.66-2.396 2.634 2.634 0 0 0-2.866.645 2.555 2.555 0 0 0-.445 2.87zm-9.435.007a2.62 2.62 0 0 0 2.546 1.454h-.01a2.506 2.506 0 0 0 1.767-.784A2.441 2.441 0 0 0 62.505 26a2.58 2.58 0 0 0-1.663-2.396 2.635 2.635 0 0 0-2.867.65 2.554 2.554 0 0 0-.437 2.872zm33.518-5.376a4.047 4.047 0 0 1 3.687 2.71l.213.45-5.763 2.35a2.189 2.189 0 0 0 2.086 1.29 2.47 2.47 0 0 0 2.117-1.18l1.468 1a4.298 4.298 0 0 1-3.585 1.88 4.241 4.241 0 0 1-3.052-1.228A4.133 4.133 0 0 1 87.005 26a3.97 3.97 0 0 1 1.093-2.991 4.076 4.076 0 0 1 2.958-1.259zm-2.187 4.13a2.312 2.312 0 0 1 .596-1.706 2.372 2.372 0 0 1 1.652-.774 1.675 1.675 0 0 1 1.6.9l-3.848 1.58zM86.083 30H84.19V17.5h1.894V30zm-4.993-7.3h-.07a3.056 3.056 0 0 0-2.27-1c-2.298.11-4.105 1.983-4.105 4.255 0 2.273 1.807 4.146 4.105 4.255.87.015 1.7-.351 2.27-1h.06v.61c0 1.63-.88 2.5-2.299 2.5a2.379 2.379 0 0 1-2.167-1.51l-1.651.68A4.103 4.103 0 0 0 78.78 34c2.218 0 4.051-1.29 4.051-4.43V22H81.09v.7zM76.53 26a2.603 2.603 0 0 0 2.383 2.58 2.427 2.427 0 0 0 1.713-.803A2.359 2.359 0 0 0 81.222 26a2.377 2.377 0 0 0-.599-1.768 2.444 2.444 0 0 0-1.7-.812c-1.355.118-2.393 1.237-2.393 2.58zm27.085-8.5h-4.527V30h1.894v-4.74h2.643a3.957 3.957 0 0 0 3.646-1.855 3.847 3.847 0 0 0 0-4.05 3.953 3.953 0 0 0-3.646-1.855h-.01zm-2.643 6h2.643l.04.03c1.2 0 2.173-.96 2.173-2.145s-.973-2.145-2.172-2.145h-2.684v4.26zm14.32-1.8a3.554 3.554 0 0 0-3.372 1.91l1.681.69a1.798 1.798 0 0 1 1.723-.92c.485-.056.973.084 1.354.387.381.302.623.743.671 1.223v.13a4.232 4.232 0 0 0-1.975-.48c-1.813 0-3.646 1-3.646 2.81.036.78.39 1.513.981 2.03a2.95 2.95 0 0 0 2.159.72 2.67 2.67 0 0 0 2.43-1.199h.061v1h1.824v-4.81c0-2.19-1.682-3.46-3.84-3.46l-.05-.03zm-1.71 5.79c0 .75.86 1.06 1.478 1.06l.05.03a2.278 2.278 0 0 0 2.219-2 3.403 3.403 0 0 0-1.722-.42c-.952 0-2.026.33-2.026 1.33zM125.826 22l-2.168 5.42h-.061L121.35 22h-2.026l3.373 7.58-1.925 4.21h1.975L127.934 22h-2.106zm-15.132 8H108.8V17.5h1.894V30z" fill="#fff"/><path d="M.47.07C.14.461-.027.962.004 1.47v22.12a1.979 1.979 0 0 0 .466 1.4l.07.07 12.55-12.38v-.29L.54 0 .47.07z" transform="translate(10.604 7.47)" fill="url(#paint0_linear)"/><path d="M4.153 8.56L0 4.43v-.29L4.153 0l.09.05 4.974 2.79c1.418.79 1.418 2.09 0 2.89L4.264 8.51l-.111.05z" transform="translate(23.693 15.72)" fill="url(#paint1_linear)"/><path d="M16.894 4.22L12.62 0 0 12.46a1.667 1.667 0 0 0 2.107.06l14.797-8.3" transform="translate(11.074 20)" fill="url(#paint2_linear)"/><path d="M16.904 8.646L2.107.346A1.667 1.667 0 0 0 0 .406l12.63 12.46 4.274-4.22z" transform="translate(11.063 7.134)" fill="url(#paint3_linear)"/><path opacity=".2" d="M27.846 24.13L13.17 32.38c-.6.443-1.425.443-2.025 0l-.071.07.07.07c.6.447 1.427.447 2.026 0l14.798-8.3-.122-.09z" fill="#000"/><path opacity=".12" fill-rule="evenodd" clip-rule="evenodd" d="M27.846 24.13l5.064-2.83a1.864 1.864 0 0 0 1.013-1.3 1.752 1.752 0 0 1-1.013 1.44l-4.972 2.78-.092-.09zm-17.24 6.98c.015.44.18.867.468 1.21l.071.08-.07.07a1.989 1.989 0 0 1-.47-1.36zm0 0l.002-.04v-.15a1.887 1.887 0 0 0-.002.19z" fill="#000"/><path opacity=".25" d="M13.17 7.62L32.91 18.7c.524.255.898.736 1.013 1.3a1.75 1.75 0 0 0-1.013-1.44L13.17 7.48c-1.418-.79-2.572-.13-2.572 1.47v.15c.03-1.61 1.164-2.27 2.572-1.48z" fill="#fff"/><path fill-rule="evenodd" clip-rule="evenodd" d="M50.138 12.22a3.21 3.21 0 0 1 0-4.45 3.162 3.162 0 0 1 2.229-.916c.836 0 1.638.33 2.228.917a3.2 3.2 0 0 1 0 4.45 3.19 3.19 0 0 1-4.457 0zM42.4 14.27h.75V13h4.639v1.26h.75v-2h-.68V7h-4.05v2.97a2.837 2.837 0 0 1-.77 2.3H42.4v2zm1.58-1.97a3.958 3.958 0 0 0 .578-2.3V7.74h2.461v4.56H43.98zm10.038-4.02a2.537 2.537 0 0 1 0 3.44 2.361 2.361 0 0 1-3.302 0 2.537 2.537 0 0 1 0-3.44 2.361 2.361 0 0 1 3.302 0zm5.408 4.85a3.117 3.117 0 0 1-2.257-.9 3.039 3.039 0 0 1-.903-2.23c-.02-.834.307-1.64.903-2.23a3.117 3.117 0 0 1 2.257-.9 2.82 2.82 0 0 1 2.228 1l-.547.52a2.036 2.036 0 0 0-1.691-.76 2.318 2.318 0 0 0-1.682.66 2.546 2.546 0 0 0 0 3.47 2.315 2.315 0 0 0 1.682.66 2.411 2.411 0 0 0 1.854-.89l.546.54c-.276.33-.621.596-1.013.78a3.229 3.229 0 0 1-1.377.28zm4.79-.13h.78V7.74h1.692V7h-4.173v.74h1.702V13zm7.84-6l-2.3 5.06a1.525 1.525 0 0 1-1.397 1.07 1.586 1.586 0 0 1-.608-.13l.203-.71a.84.84 0 0 0 .405.11.729.729 0 0 0 .425-.1.933.933 0 0 0 .274-.38l.223-.48-2.026-4.43h.922l1.498 3.44L71.134 7h.922zm5.276 0h-4.395v6h.78V7.74h2.836V13h.78V7zm1.388 0h.78v2.57h3.039V7h.78v6h-.78v-2.71H79.5V13h-.78V7zm6.512.77a3.21 3.21 0 0 0 0 4.45 3.19 3.19 0 0 0 4.457 0 3.2 3.2 0 0 0 0-4.45 3.161 3.161 0 0 0-2.228-.916 3.16 3.16 0 0 0-2.229.917zm3.88 3.95a2.537 2.537 0 0 0 0-3.44 2.361 2.361 0 0 0-3.302 0 2.537 2.537 0 0 0 0 3.44 2.36 2.36 0 0 0 3.302 0zM95.968 7H93.77v6l2.33-.04a1.89 1.89 0 0 0 1.297-.49c.356-.306.557-.753.546-1.22a1.347 1.347 0 0 0-.294-.86 1.539 1.539 0 0 0-.739-.52c.242-.104.449-.274.598-.49.15-.222.227-.484.223-.75a1.502 1.502 0 0 0-.527-1.17A1.8 1.8 0 0 0 95.968 7zM94.55 9.57h1.418a.918.918 0 0 0 .71-.29.885.885 0 0 0 .04-1.28.879.879 0 0 0-.679-.29h-1.448l-.04 1.86zm1.57 2.69h-1.57l.03-1.99h1.54c.56 0 1.013.448 1.013 1a.993.993 0 0 1-.283.68.938.938 0 0 1-.73.31z" fill="#fff" stroke="#fff" stroke-width=".2"/><defs><linearGradient id="paint0_linear" x2="1" gradientUnits="userSpaceOnUse" gradientTransform="matrix(-16.9952 16.77976 -8.76436 -32.53805 11.972 1.243)"><stop stop-color="#00A0FF"/><stop offset=".01" stop-color="#00A1FF"/><stop offset=".26" stop-color="#00BEFF"/><stop offset=".51" stop-color="#00D2FF"/><stop offset=".76" stop-color="#00DFFF"/><stop offset="1" stop-color="#00E3FF"/></linearGradient><linearGradient id="paint1_linear" x2="1" gradientUnits="userSpaceOnUse" gradientTransform="matrix(-24.5001 0 0 -20.4006 11.07 4.28)"><stop stop-color="#FFE000"/><stop offset=".41" stop-color="#FFBD00"/><stop offset=".78" stop-color="orange"/><stop offset="1" stop-color="#FF9C00"/></linearGradient><linearGradient id="paint2_linear" x2="1" gradientUnits="userSpaceOnUse" gradientTransform="scale(-37.7469 -28.7296) rotate(-52.36 -.274 .353)"><stop stop-color="#FF3A44"/><stop offset="1" stop-color="#C31162"/></linearGradient><linearGradient id="paint3_linear" x2="1" gradientUnits="userSpaceOnUse" gradientTransform="matrix(10.29026 10.15998 -13.34896 7.83198 -3.17 -6.954)"><stop stop-color="#32A071"/><stop offset=".07" stop-color="#2DA771"/><stop offset=".48" stop-color="#15CF74"/><stop offset=".8" stop-color="#06E775"/><stop offset="1" stop-color="#00F076"/></linearGradient></defs></svg>