<?xml version="1.0" standalone="no"?>
<!DOCTYPE svg PUBLIC "-//W3C//DTD SVG 20010904//EN"
 "http://www.w3.org/TR/2001/REC-SVG-20010904/DTD/svg10.dtd">
<svg version="1.0" xmlns="http://www.w3.org/2000/svg"
 width="345.000000pt" height="460.000000pt" viewBox="0 0 345.000000 460.000000"
 preserveAspectRatio="xMidYMid meet">

<g transform="translate(0.000000,460.000000) scale(0.100000,-0.100000)"
fill="#000000" stroke="none">
<path d="M960 3915 l0 -275 75 0 75 0 2 193 3 192 39 -145 c21 -80 45 -166 53
-192 l14 -48 68 0 68 0 54 198 54 197 3 -197 2 -198 75 0 75 0 0 275 0 275
-120 0 -119 0 -15 -52 c-8 -29 -26 -96 -41 -148 -14 -52 -28 -102 -31 -110 -7
-16 -13 2 -64 193 l-32 117 -119 0 -119 0 0 -275z"/>
<path d="M1703 4133 c19 -27 71 -99 116 -162 l81 -114 0 -113 0 -114 90 0 90
0 0 113 0 113 110 152 c61 83 110 156 110 162 0 6 -38 10 -95 10 l-95 0 -58
-90 c-31 -49 -59 -90 -62 -90 -3 0 -30 41 -60 90 l-55 89 -103 1 -104 0 35
-47z"/>
<path d="M647 3534 c-4 -4 -7 -31 -7 -60 l0 -53 88 -3 87 -3 3 -222 2 -223 75
0 75 0 2 223 3 222 93 3 93 3 -3 57 -3 57 -251 3 c-138 1 -253 -1 -257 -4z"/>
<path d="M1312 3518 c-7 -13 -30 -75 -53 -138 -22 -63 -51 -144 -64 -180 -13
-36 -37 -102 -54 -147 l-29 -83 83 0 82 0 23 70 23 70 91 0 92 0 24 -67 25
-68 83 -3 c62 -2 82 0 82 10 0 17 -190 529 -203 546 -6 8 -40 12 -102 12 -85
0 -92 -2 -103 -22z m168 -305 c0 -2 -29 -3 -65 -3 -36 0 -65 3 -65 6 0 4 14
49 31 101 l32 95 33 -98 c19 -55 34 -100 34 -101z"/>
<path d="M1754 3527 c-2 -7 34 -70 81 -139 47 -70 85 -131 85 -135 0 -5 -40
-69 -90 -142 -49 -73 -90 -135 -90 -137 0 -2 40 -4 88 -4 l88 0 48 90 c27 50
53 90 57 90 4 0 31 -40 60 -90 l53 -90 88 0 c48 0 88 3 88 6 0 6 -97 153 -152
228 -34 48 -35 59 -4 99 55 73 146 213 146 224 0 10 -23 13 -83 13 l-83 0 -43
-74 c-23 -41 -45 -84 -48 -95 -3 -12 -8 -21 -12 -21 -3 0 -25 36 -49 80 -24
44 -50 87 -58 95 -20 20 -162 22 -170 2z"/>
<path d="M2397 3534 c-4 -4 -7 -133 -7 -286 l0 -278 80 0 80 0 -2 283 -3 282
-70 3 c-39 1 -74 0 -78 -4z"/>
<path d="M744 2827 c-2 -7 -3 -87 -2 -177 l3 -165 172 4 173 3 2 -178 3 -179
170 0 170 0 3 178 2 177 175 0 175 0 2 -177 3 -178 172 -3 173 -2 2 177 3 178
170 0 170 0 0 175 0 175 -170 0 -170 0 -3 -172 -2 -173 -175 0 -175 0 -2 173
-3 172 -170 0 -170 0 -3 -172 -2 -173 -175 0 -175 0 0 175 0 175 -170 0 c-130
0 -172 -3 -176 -13z"/>
</g>
</svg>
