<svg width="37" height="37" viewBox="0 0 37 37" fill="none" xmlns="http://www.w3.org/2000/svg"><path d="M18.5 36C28.165 36 36 28.165 36 18.5S28.165 1 18.5 1 1 8.835 1 18.5 8.835 36 18.5 36z" fill="#fff" stroke="#6D15CC" stroke-width="2"/><path d="M26.707 11.708a1 1 0 0 0-1.414-1.414l1.414 1.414zM10.293 25.293a1 1 0 0 0 1.414 1.414l-1.414-1.415zm15 1.414a1 1 0 0 0 1.414-1.414l-1.414 1.414zM11.708 10.293a1 1 0 0 0-1.414 1.414l1.414-1.414zm13.585 0l-15 15 1.414 1.414 15-14.999-1.414-1.414zm1.414 15l-15-15-1.413 1.414 14.999 15 1.414-1.414z" fill="#6D15CC"/></svg>