<svg xmlns="http://www.w3.org/2000/svg" viewBox="0 0 17 24"><path d="M16.4 22.8l-1.7-2.1 1.5-3.4H11v1.1h3.2l-.5.6H11v.1H5.8V19H2.6l-.5-.6h3.7v-1.1H.2L1.8 21 .2 22.8c-.2.2-.2.6.1.8s.6.2.7-.1l1.2-1.4.2.5h11.4l.3-.7 1.4 1.6c.2.2.5.3.7.1.3-.2.3-.6.2-.8zM12.8 21H3.6l-.5-.6h10.2l-.5.6zm3.4-17c-.4-1.2-3.2-2.1-6.9-2.3.4.3.6.8.6 1.3s-.2.9-.5 1.2c-.3.3-.8.5-1.2.5-.5 0-.9-.2-1.2-.5-.4-.3-.6-.8-.6-1.2 0-.5.2-1 .6-1.3C3.3 1.9.5 2.8.1 4v12.3h5.7v-1.4H11v1.5h5.2V4zM2.1 15.2c-.4 0-.7-.3-.7-.7 0-.4.3-.7.7-.7.4 0 .7.3.7.7 0 .4-.3.7-.7.7zm1.9.2c-.5 0-.9-.4-.9-.9s.4-.9.9-.9.9.4.9.9c-.1.5-.4.9-.9.9zm3.7-5.8c0 .4-.3.7-.7.7H1.7c-.4 0-.7-.3-.7-.7v-3c0-.4.3-.7.7-.7H7c.4 0 .7.3.7.7v3zm4.8 5.8c-.5 0-.9-.4-.9-.9s.4-.9.9-.9.9.4.9.9-.4.9-.9.9zm1.9-.2c-.4 0-.7-.3-.7-.7 0-.4.3-.7.7-.7.4 0 .7.3.7.7-.1.4-.4.7-.7.7zm1-5.6c0 .4-.3.7-.7.7H9.3c-.3 0-.7-.3-.7-.7v-3c0-.4.3-.7.7-.7h5.3c.4 0 .7.3.7.7v3zM8.1.7C6.9.7 5.8 1.7 5.8 3s1 2.3 2.3 2.3 2.3-1 2.3-2.3S9.4.7 8.1.7zm0 3.5c-.6 0-1.2-.6-1.2-1.2s.5-1.2 1.2-1.2 1.3.5 1.3 1.2-.6 1.2-1.3 1.2z"/><path d="M6.8 15.8h3.1V18H6.8z"/></svg>