<svg width="22" height="22" viewBox="0 0 22 22" xmlns="http://www.w3.org/2000/svg"><path d="M11.047 0a.785.785 0 0 0-.777.79l-.017 2.403c-3.78.29-6.823 3.266-7.201 7.022l-2.235.009a.785.785 0 1 0 .011 1.567l2.222-.01a7.857 7.857 0 0 0 7.117 7.033l-.013 2.333c-.008 1.047 1.562 1.058 1.57.014l.013-2.366a7.857 7.857 0 0 0 6.923-7.061l2.517-.009a.785.785 0 1 0 0-1.567l-2.528.009c-.386-3.61-3.235-6.49-6.827-6.936L11.84.8a.785.785 0 0 0-.793-.8zm-.192 4.732a6.26 6.26 0 0 1 6.273 6.273 6.262 6.262 0 0 1-6.273 6.275 6.264 6.264 0 0 1-6.275-6.275c0-3.474 2.8-6.273 6.275-6.273zm-4.13 6.301a4.235 4.235 0 1 0 4.235-4.235 4.235 4.235 0 0 0-4.235 4.235z" fill-rule="evenodd"/></svg>