<svg width="20" height="20" viewBox="0 0 20 20" xmlns="http://www.w3.org/2000/svg"><path d="M14.373 8.772c1.99 0 3.425.083 4.306.25.88.16 1.321.424 1.321.793 0 .38-.427.652-1.281.82-.855.158-2.303.237-4.346.237l-1.982 2.655h.304c.29 0 .51.044.66.133a.42.42 0 0 1 .225.383.42.42 0 0 1-.225.383c-.15.088-.37.132-.66.132h-1.057l-1.268 1.73h.29c.291 0 .511.045.66.133.16.088.239.216.239.383s-.08.295-.238.383c-.15.088-.37.132-.66.132H9.603c-.494.855-.974 1.458-1.44 1.81-.458.344-.995.515-1.612.515h-.277c.942-1.955 1.69-3.672 2.245-5.152.564-1.48.846-2.448.846-2.906 0-.484-.815-.77-2.444-.858a43.702 43.702 0 0 1-3.342-.291c-.176.132-.432.418-.766.859a35.59 35.59 0 0 0-1.295 1.822 9.115 9.115 0 0 1-.74.159 17.74 17.74 0 0 1-.766.119c.256-.626.467-1.207.634-1.744.176-.546.313-1.066.41-1.559a2.577 2.577 0 0 1-.832-.277 3.568 3.568 0 0 1 .832-.264C.95 9.042.81 8.512.634 7.967A20.737 20.737 0 0 0 0 6.249c.414.053.894.137 1.44.251a.96.96 0 0 1 .08.026c.528.792.96 1.409 1.294 1.85.334.43.585.704.753.818a60.08 60.08 0 0 1 3.196-.25c1.735-.098 2.603-.393 2.603-.886 0-.45-.278-1.405-.832-2.866C7.979 3.73 7.226 1.999 6.274 0h.278c.617 0 1.154.176 1.612.528.466.344.946.943 1.44 1.797h1.056c.291 0 .511.044.66.132.16.088.239.216.239.383 0 .168-.08.295-.238.383-.15.089-.37.133-.66.133h-.291l1.268 1.73h1.057c.29 0 .51.044.66.132a.42.42 0 0 1 .225.384.42.42 0 0 1-.225.383c-.15.088-.37.132-.66.132h-.304l1.982 2.655z"/></svg>